Coordinates
version=1
nRows=17
nColumns=24
inDegrees=yes

Units are S.I. units (second, meters, Newtons, ...)
Angles are in degrees.

endheader
time	pelvis_tilt	pelvis_list	pelvis_rotation	pelvis_tx	pelvis_ty	pelvis_tz	hip_flexion_r	hip_adduction_r	hip_rotation_r	knee_angle_r	ankle_angle_r	subtalar_angle_r	mtp_angle_r	hip_flexion_l	hip_adduction_l	hip_rotation_l	knee_angle_l	ankle_angle_l	subtalar_angle_l	mtp_angle_l	lumbar_extension	lumbar_bending	lumbar_rotation
      0.05000000	      5.69922983	      0.73654718	     -2.30172457	     -0.68260327	      0.96728540	      0.17095575	     21.24040669	     -1.10186476	    -14.69807729	     -8.43899464	      1.00903087	      2.46905744	     26.17148285	    -21.11456653	      1.38870676	    -18.34023652	    -14.58849964	     15.34983326	     18.86423408	     33.15339640	    -14.29445427	     -0.82044471	     -8.34286736
      0.05400000	      5.64741227	      0.50616393	     -2.08165221	     -0.67689341	      0.96686670	      0.17165398	     21.27839316	     -0.98152518	    -14.61224314	     -9.02143956	      0.82358489	      2.13582575	     26.12985040	    -20.82454743	      1.12239985	    -18.02270397	    -15.41327692	     14.76509317	     18.49605107	     36.35669038	    -14.19495142	     -0.51400356	     -8.48193817
      0.05800000	      5.58952905	      0.29468275	     -1.89936282	     -0.67116631	      0.96665405	      0.17224935	     21.31133044	     -0.84958044	    -14.51336792	     -9.58040229	      0.63205842	      1.81572794	     26.05651164	    -20.52963821	      0.81970587	    -17.74299090	    -16.27571658	     14.12631236	     18.12049954	     39.65131342	    -14.09663422	     -0.21071524	     -8.58374022
      0.06200000	      5.52756101	      0.09974394	     -1.75274568	     -0.66541693	      0.96662584	      0.17277427	     21.33798234	     -0.70676387	    -14.40296872	    -10.11693157	      0.43603670	      1.50937545	     25.95242630	    -20.22861054	      0.48361288	    -17.50176175	    -17.17560930	     13.43179577	     17.73929366	     43.02240102	    -14.00052332	      0.08895708	     -8.64971385
      0.06600000	      5.46420766	     -0.08225028	     -1.63869798	     -0.65963885	      0.96675039	      0.17327375	     21.35668970	     -0.55392173	    -14.28303856	    -10.63255968	      0.23770946	      1.21746699	     25.81887743	    -19.91933200	      0.11854271	    -17.29958053	    -18.11285659	     12.67942934	     17.35465188	     46.44911829	    -13.90791300	      0.38448179	     -8.68176487
      0.07000000	      5.40253993	     -0.25571533	     -1.55335239	     -0.65382651	      0.96699065	      0.17379621	     21.36554122	     -0.39186086	    -14.15589784	    -11.12926269	      0.03977776	      0.94066538	     25.65739587	    -19.59882588	     -0.27008844	    -17.13657893	    -19.08761796	     11.86694593	     16.96905982	     49.90537513	    -13.82023676	      0.67536222	     -8.68213797
      0.07400000	      5.34551273	     -0.42507776	     -1.49251258	     -0.64797789	      0.96731183	      0.17438038	     21.36261810	     -0.22124910	    -14.02404885	    -11.60936174	     -0.15465090	      0.67949253	     25.46969135	    -19.26360853	     -0.67670239	    -17.01212294	    -20.10042057	     10.99223821	     16.58501275	     53.36063775	    -13.73893613	      0.96123175	     -8.65329954
      0.07800000	      5.29551872	     -0.59397195	     -1.45213630	     -0.64209600	      0.96768790	      0.17504568	     21.34627635	     -0.04260797	    -13.89003343	    -12.07536862	     -0.34218147	      0.43424705	     25.25759125	    -18.91013092	     -1.09645344	    -16.92454341	    -21.15217370	     10.05373230	     16.20476216	     56.78081514	    -13.66533300	      1.24192716	     -8.59783203
      0.08200000	      5.25412121	     -0.76476743	     -1.42870336	     -0.63618854	      0.96810411	      0.17579029	     21.31540645	      0.14361451	    -13.75629778	    -12.52979982	     -0.51926442	      0.20494866	     25.02298777	    -18.53515055	     -1.52586044	    -16.87098764	    -22.24405676	      9.05081348	     15.83009213	     60.12919870	    -13.60050790	      1.51752838	     -8.51834216
      0.08600000	      5.22199102	     -0.93853105	     -1.41938339	     -0.63026624	      0.96855476	      0.17659663	     21.26961262	      0.33694528	    -13.62507179	    -12.97499133	     -0.68233955	     -0.00868716	     24.76779389	    -18.13594950	     -1.96301689	    -16.84741742	    -23.37729331	      7.98427560	     15.46214526	     63.36743241	    -13.54519112	      1.78835957	     -8.41738453
      0.09000000	      5.19899215	     -1.11532931	     -1.42200776	     -0.62434098	      0.96903832	      0.17744063	     21.20927498	      0.53682232	    -13.49827092	    -13.41294232	     -0.82798467	     -0.20724359	     24.49390847	    -17.71039643	     -2.40739877	    -16.84874635	    -24.55285445	      6.85675375	     15.10131000	     66.45649142	    -13.49967562	      2.05495422	     -8.29740127
      0.09400000	      5.18433617	     -1.29468120	     -1.43491104	     -0.61842426	      0.96955248	      0.17830049	     21.13548670	      0.74259920	    -13.37742640	    -13.84520365	     -0.95306077	     -0.39156801	     24.20319025	    -17.25689487	     -2.85940575	    -16.86908516	    -25.77114598	      5.67309440	     14.74717344	     69.35764755	    -13.46376175	      2.31799350	     -8.16067687
      0.09800000	      5.17673857	     -1.47598028	     -1.45672687	     -0.61252609	      0.97009142	      0.17916202	     21.04988614	      0.95361420	    -13.26364583	    -14.27281293	     -1.05484439	     -0.56271430	     23.89744007	    -16.77427455	     -3.31980759	    -16.90205295	    -27.03173107	      4.44061943	     14.39853751	     72.03340164	    -13.43674144	      2.57823011	     -8.00930670
      0.10200000	      5.17454095	     -1.65877394	     -1.48620919	     -0.60665431	      0.97064563	      0.18001980	     20.95442484	      1.16929060	    -13.15760244	    -14.69626659	     -1.13113779	     -0.72186915	     23.57839057	    -16.26167769	     -3.78924203	    -16.94111151	    -28.33312802	      3.16924776	     14.05349185	     74.44836427	    -13.41742583	      2.83640983	     -7.84517736
      0.10600000	      5.17579625	     -1.84286953	     -1.52211877	     -0.60081429	      0.97120372	      0.18087509	     20.85112236	      1.38922428	    -13.05954891	    -15.11551392	     -1.18034915	     -0.87027070	     23.24770238	    -15.71847524	     -4.26785360	    -16.97988762	    -29.67270720	      1.87145003	     13.70953371	     76.57006866	    -13.40421493	      3.09319978	     -7.66995718
      0.11000000	      5.17834016	     -2.02829819	     -1.56318317	     -0.59500884	      0.97175484	      0.18173221	     20.74185706	      1.61322242	    -12.96935010	    -15.52995832	     -1.20153688	     -1.00912723	     22.90696547	    -15.14422642	     -4.75510213	    -17.01245952	    -31.04669625	      0.56202607	     13.36372446	     78.36970142	    -13.39520225	      3.34912854	     -7.48509520
      0.11400000	      5.17988041	     -2.21519657	     -1.60811508	     -0.58923827	      0.97229065	      0.18259513	     20.62822901	      1.84127657	    -12.88652993	    -15.93845676	     -1.19441585	     -1.13954233	     22.55770476	    -14.53867757	     -5.24972382	    -17.03359500	    -32.45028997	     -0.74229090	     13.01287166	     79.82273935	    -13.38830284	      3.60453928	     -7.29182774
